{"asset":{"version":"2.0","generator":"Tanki2 Godot A3D converter"},"scene":0,"scenes":[{"nodes":[0]}],"nodes":[{"mesh":0,"name":"ArenaV3Original"}],"meshes":[{"name":"ArenaV3Original","primitives":[{"attributes":{"POSITION":0,"NORMAL":1,"TEXCOORD_0":2,"COLOR_0":3},"material":0,"mode":4},{"attributes":{"POSITION":4,"NORMAL":5,"TEXCOORD_0":6,"COLOR_0":7},"material":1,"mode":4},{"attributes":{"POSITION":8,"NORMAL":9,"TEXCOORD_0":10,"COLOR_0":11},"material":2,"mode":4},{"attributes":{"POSITION":12,"NORMAL":13,"TEXCOORD_0":14,"COLOR_0":15},"material":3,"mode":4},{"attributes":{"POSITION":16,"NORMAL":17,"TEXCOORD_0":18,"COLOR_0":19},"material":4,"mode":4},{"attributes":{"POSITION":20,"NORMAL":21,"TEXCOORD_0":22,"COLOR_0":23},"material":5,"mode":4},{"attributes":{"POSITION":24,"NORMAL":25,"TEXCOORD_0":26,"COLOR_0":27},"material":6,"mode":4},{"attributes":{"POSITION":28,"NORMAL":29,"TEXCOORD_0":30,"COLOR_0":31},"material":7,"mode":4},{"attributes":{"POSITION":32,"NORMAL":33,"TEXCOORD_0":34,"COLOR_0":35},"material":8,"mode":4},{"attributes":{"POSITION":36,"NORMAL":37,"TEXCOORD_0":38,"COLOR_0":39},"material":9,"mode":4},{"attributes":{"POSITION":40,"NORMAL":41,"TEXCOORD_0":42,"COLOR_0":43},"material":10,"mode":4},{"attributes":{"POSITION":44,"NORMAL":45,"TEXCOORD_0":46,"COLOR_0":47},"material":11,"mode":4},{"attributes":{"POSITION":48,"NORMAL":49,"TEXCOORD_0":50,"COLOR_0":51},"material":12,"mode":4},{"attributes":{"POSITION":52,"NORMAL":53,"TEXCOORD_0":54,"COLOR_0":55},"material":13,"mode":4},{"attributes":{"POSITION":56,"NORMAL":57,"TEXCOORD_0":58,"COLOR_0":59},"material":14,"mode":4},{"attributes":{"POSITION":60,"NORMAL":61,"TEXCOORD_0":62,"COLOR_0":63},"material":15,"mode":4},{"attributes":{"POSITION":64,"NORMAL":65,"TEXCOORD_0":66,"COLOR_0":67},"material":16,"mode":4},{"attributes":{"POSITION":68,"NORMAL":69,"TEXCOORD_0":70,"COLOR_0":71},"material":17,"mode":4},{"attributes":{"POSITION":72,"NORMAL":73,"TEXCOORD_0":74,"COLOR_0":75},"material":18,"mode":4},{"attributes":{"POSITION":76,"NORMAL":77,"TEXCOORD_0":78,"COLOR_0":79},"material":19,"mode":4},{"attributes":{"POSITION":80,"NORMAL":81,"TEXCOORD_0":82,"COLOR_0":83},"material":20,"mode":4},{"attributes":{"POSITION":84,"NORMAL":85,"TEXCOORD_0":86,"COLOR_0":87},"material":21,"mode":4},{"attributes":{"POSITION":88,"NORMAL":89,"TEXCOORD_0":90,"COLOR_0":91},"material":22,"mode":4},{"attributes":{"POSITION":92,"NORMAL":93,"TEXCOORD_0":94,"COLOR_0":95},"material":23,"mode":4},{"attributes":{"POSITION":96,"NORMAL":97,"TEXCOORD_0":98,"COLOR_0":99},"material":24,"mode":4},{"attributes":{"POSITION":100,"NORMAL":101,"TEXCOORD_0":102,"COLOR_0":103},"material":25,"mode":4},{"attributes":{"POSITION":104,"NORMAL":105,"TEXCOORD_0":106,"COLOR_0":107},"material":26,"mode":4},{"attributes":{"POSITION":108,"NORMAL":109,"TEXCOORD_0":110,"COLOR_0":111},"material":27,"mode":4},{"attributes":{"POSITION":112,"NORMAL":113,"TEXCOORD_0":114,"COLOR_0":115},"material":28,"mode":4},{"attributes":{"POSITION":116,"NORMAL":117,"TEXCOORD_0":118,"COLOR_0":119},"material":29,"mode":4},{"attributes":{"POSITION":120,"NORMAL":121,"TEXCOORD_0":122,"COLOR_0":123},"material":30,"mode":4},{"attributes":{"POSITION":124,"NORMAL":125,"TEXCOORD_0":126,"COLOR_0":127},"material":31,"mode":4},{"attributes":{"POSITION":128,"NORMAL":129,"TEXCOORD_0":130,"COLOR_0":131},"material":32,"mode":4},{"attributes":{"POSITION":132,"NORMAL":133,"TEXCOORD_0":134,"COLOR_0":135},"material":33,"mode":4},{"attributes":{"POSITION":136,"NORMAL":137,"TEXCOORD_0":138,"COLOR_0":139},"material":34,"mode":4},{"attributes":{"POSITION":140,"NORMAL":141,"TEXCOORD_0":142,"COLOR_0":143},"material":35,"mode":4},{"attributes":{"POSITION":144,"NORMAL":145,"TEXCOORD_0":146,"COLOR_0":147},"material":36,"mode":4},{"attributes":{"POSITION":148,"NORMAL":149,"TEXCOORD_0":150,"COLOR_0":151},"material":37,"mode":4},{"attributes":{"POSITION":152,"NORMAL":153,"TEXCOORD_0":154,"COLOR_0":155},"material":38,"mode":4},{"attributes":{"POSITION":156,"NORMAL":157,"TEXCOORD_0":158,"COLOR_0":159},"material":39,"mode":4},{"attributes":{"POSITION":160,"NORMAL":161,"TEXCOORD_0":162,"COLOR_0":163},"material":40,"mode":4},{"attributes":{"POSITION":164,"NORMAL":165,"TEXCOORD_0":166,"COLOR_0":167},"material":41,"mode":4},{"attributes":{"POSITION":168,"NORMAL":169,"TEXCOORD_0":170,"COLOR_0":171},"material":42,"mode":4},{"attributes":{"POSITION":172,"NORMAL":173,"TEXCOORD_0":174,"COLOR_0":175},"material":43,"mode":4},{"attributes":{"POSITION":176,"NORMAL":177,"TEXCOORD_0":178,"COLOR_0":179},"material":44,"mode":4},{"attributes":{"POSITION":180,"NORMAL":181,"TEXCOORD_0":182,"COLOR_0":183},"material":45,"mode":4},{"attributes":{"POSITION":184,"NORMAL":185,"TEXCOORD_0":186,"COLOR_0":187},"material":46,"mode":4},{"attributes":{"POSITION":188,"NORMAL":189,"TEXCOORD_0":190,"COLOR_0":191},"material":47,"mode":4},{"attributes":{"POSITION":192,"NORMAL":193,"TEXCOORD_0":194,"COLOR_0":195},"material":48,"mode":4},{"attributes":{"POSITION":196,"NORMAL":197,"TEXCOORD_0":198,"COLOR_0":199},"material":49,"mode":4},{"attributes":{"POSITION":200,"NORMAL":201,"TEXCOORD_0":202,"COLOR_0":203},"material":50,"mode":4},{"attributes":{"POSITION":204,"NORMAL":205,"TEXCOORD_0":206,"COLOR_0":207},"material":51,"mode":4},{"attributes":{"POSITION":208,"NORMAL":209,"TEXCOORD_0":210,"COLOR_0":211},"material":52,"mode":4},{"attributes":{"POSITION":212,"NORMAL":213,"TEXCOORD_0":214,"COLOR_0":215},"material":53,"mode":4},{"attributes":{"POSITION":216,"NORMAL":217,"TEXCOORD_0":218,"COLOR_0":219},"material":54,"mode":4},{"attributes":{"POSITION":220,"NORMAL":221,"TEXCOORD_0":222,"COLOR_0":223},"material":55,"mode":4},{"attributes":{"POSITION":224,"NORMAL":225,"TEXCOORD_0":226,"COLOR_0":227},"material":56,"mode":4},{"attributes":{"POSITION":228,"NORMAL":229,"TEXCOORD_0":230,"COLOR_0":231},"material":57,"mode":4},{"attributes":{"POSITION":232,"NORMAL":233,"TEXCOORD_0":234,"COLOR_0":235},"material":58,"mode":4},{"attributes":{"POSITION":236,"NORMAL":237,"TEXCOORD_0":238,"COLOR_0":239},"material":59,"mode":4}]}],"buffers":[{"uri":"arena_visual.bin","byteLength":20830128}],"bufferViews":[{"buffer":0,"byteOffset":0,"byteLength":13320,"target":34962},{"buffer":0,"byteOffset":13320,"byteLength":13320,"target":34962},{"buffer":0,"byteOffset":26640,"byteLength":8880,"target":34962},{"buffer":0,"byteOffset":35520,"byteLength":13320,"target":34962},{"buffer":0,"byteOffset":48840,"byteLength":362736,"target":34962},{"buffer":0,"byteOffset":411576,"byteLength":362736,"target":34962},{"buffer":0,"byteOffset":774312,"byteLength":241824,"target":34962},{"buffer":0,"byteOffset":1016136,"byteLength":362736,"target":34962},{"buffer":0,"byteOffset":1378872,"byteLength":1422864,"target":34962},{"buffer":0,"byteOffset":2801736,"byteLength":1422864,"target":34962},{"buffer":0,"byteOffset":4224600,"byteLength":948576,"target":34962},{"buffer":0,"byteOffset":5173176,"byteLength":1422864,"target":34962},{"buffer":0,"byteOffset":6596040,"byteLength":47664,"target":34962},{"buffer":0,"byteOffset":6643704,"byteLength":47664,"target":34962},{"buffer":0,"byteOffset":6691368,"byteLength":31776,"target":34962},{"buffer":0,"byteOffset":6723144,"byteLength":47664,"target":34962},{"buffer":0,"byteOffset":6770808,"byteLength":65376,"target":34962},{"buffer":0,"byteOffset":6836184,"byteLength":65376,"target":34962},{"buffer":0,"byteOffset":6901560,"byteLength":43584,"target":34962},{"buffer":0,"byteOffset":6945144,"byteLength":65376,"target":34962},{"buffer":0,"byteOffset":7010520,"byteLength":21636,"target":34962},{"buffer":0,"byteOffset":7032156,"byteLength":21636,"target":34962},{"buffer":0,"byteOffset":7053792,"byteLength":14424,"target":34962},{"buffer":0,"byteOffset":7068216,"byteLength":21636,"target":34962},{"buffer":0,"byteOffset":7089852,"byteLength":74052,"target":34962},{"buffer":0,"byteOffset":7163904,"byteLength":74052,"target":34962},{"buffer":0,"byteOffset":7237956,"byteLength":49368,"target":34962},{"buffer":0,"byteOffset":7287324,"byteLength":74052,"target":34962},{"buffer":0,"byteOffset":7361376,"byteLength":584964,"target":34962},{"buffer":0,"byteOffset":7946340,"byteLength":584964,"target":34962},{"buffer":0,"byteOffset":8531304,"byteLength":389976,"target":34962},{"buffer":0,"byteOffset":8921280,"byteLength":584964,"target":34962},{"buffer":0,"byteOffset":9506244,"byteLength":28224,"target":34962},{"buffer":0,"byteOffset":9534468,"byteLength":28224,"target":34962},{"buffer":0,"byteOffset":9562692,"byteLength":18816,"target":34962},{"buffer":0,"byteOffset":9581508,"byteLength":28224,"target":34962},{"buffer":0,"byteOffset":9609732,"byteLength":6660,"target":34962},{"buffer":0,"byteOffset":9616392,"byteLength":6660,"target":34962},{"buffer":0,"byteOffset":9623052,"byteLength":4440,"target":34962},{"buffer":0,"byteOffset":9627492,"byteLength":6660,"target":34962},{"buffer":0,"byteOffset":9634152,"byteLength":8172,"target":34962},{"buffer":0,"byteOffset":9642324,"byteLength":8172,"target":34962},{"buffer":0,"byteOffset":9650496,"byteLength":5448,"target":34962},{"buffer":0,"byteOffset":9655944,"byteLength":8172,"target":34962},{"buffer":0,"byteOffset":9664116,"byteLength":5112,"target":34962},{"buffer":0,"byteOffset":9669228,"byteLength":5112,"target":34962},{"buffer":0,"byteOffset":9674340,"byteLength":3408,"target":34962},{"buffer":0,"byteOffset":9677748,"byteLength":5112,"target":34962},{"buffer":0,"byteOffset":9682860,"byteLength":7524,"target":34962},{"buffer":0,"byteOffset":9690384,"byteLength":7524,"target":34962},{"buffer":0,"byteOffset":9697908,"byteLength":5016,"target":34962},{"buffer":0,"byteOffset":9702924,"byteLength":7524,"target":34962},{"buffer":0,"byteOffset":9710448,"byteLength":4680,"target":34962},{"buffer":0,"byteOffset":9715128,"byteLength":4680,"target":34962},{"buffer":0,"byteOffset":9719808,"byteLength":3120,"target":34962},{"buffer":0,"byteOffset":9722928,"byteLength":4680,"target":34962},{"buffer":0,"byteOffset":9727608,"byteLength":30024,"target":34962},{"buffer":0,"byteOffset":9757632,"byteLength":30024,"target":34962},{"buffer":0,"byteOffset":9787656,"byteLength":20016,"target":34962},{"buffer":0,"byteOffset":9807672,"byteLength":30024,"target":34962},{"buffer":0,"byteOffset":9837696,"byteLength":1296,"target":34962},{"buffer":0,"byteOffset":9838992,"byteLength":1296,"target":34962},{"buffer":0,"byteOffset":9840288,"byteLength":864,"target":34962},{"buffer":0,"byteOffset":9841152,"byteLength":1296,"target":34962},{"buffer":0,"byteOffset":9842448,"byteLength":333360,"target":34962},{"buffer":0,"byteOffset":10175808,"byteLength":333360,"target":34962},{"buffer":0,"byteOffset":10509168,"byteLength":222240,"target":34962},{"buffer":0,"byteOffset":10731408,"byteLength":333360,"target":34962},{"buffer":0,"byteOffset":11064768,"byteLength":22176,"target":34962},{"buffer":0,"byteOffset":11086944,"byteLength":22176,"target":34962},{"buffer":0,"byteOffset":11109120,"byteLength":14784,"target":34962},{"buffer":0,"byteOffset":11123904,"byteLength":22176,"target":34962},{"buffer":0,"byteOffset":11146080,"byteLength":106488,"target":34962},{"buffer":0,"byteOffset":11252568,"byteLength":106488,"target":34962},{"buffer":0,"byteOffset":11359056,"byteLength":70992,"target":34962},{"buffer":0,"byteOffset":11430048,"byteLength":106488,"target":34962},{"buffer":0,"byteOffset":11536536,"byteLength":2232,"target":34962},{"buffer":0,"byteOffset":11538768,"byteLength":2232,"target":34962},{"buffer":0,"byteOffset":11541000,"byteLength":1488,"target":34962},{"buffer":0,"byteOffset":11542488,"byteLength":2232,"target":34962},{"buffer":0,"byteOffset":11544720,"byteLength":66672,"target":34962},{"buffer":0,"byteOffset":11611392,"byteLength":66672,"target":34962},{"buffer":0,"byteOffset":11678064,"byteLength":44448,"target":34962},{"buffer":0,"byteOffset":11722512,"byteLength":66672,"target":34962},{"buffer":0,"byteOffset":11789184,"byteLength":41040,"target":34962},{"buffer":0,"byteOffset":11830224,"byteLength":41040,"target":34962},{"buffer":0,"byteOffset":11871264,"byteLength":27360,"target":34962},{"buffer":0,"byteOffset":11898624,"byteLength":41040,"target":34962},{"buffer":0,"byteOffset":11939664,"byteLength":216,"target":34962},{"buffer":0,"byteOffset":11939880,"byteLength":216,"target":34962},{"buffer":0,"byteOffset":11940096,"byteLength":144,"target":34962},{"buffer":0,"byteOffset":11940240,"byteLength":216,"target":34962},{"buffer":0,"byteOffset":11940456,"byteLength":7992,"target":34962},{"buffer":0,"byteOffset":11948448,"byteLength":7992,"target":34962},{"buffer":0,"byteOffset":11956440,"byteLength":5328,"target":34962},{"buffer":0,"byteOffset":11961768,"byteLength":7992,"target":34962},{"buffer":0,"byteOffset":11969760,"byteLength":55872,"target":34962},{"buffer":0,"byteOffset":12025632,"byteLength":55872,"target":34962},{"buffer":0,"byteOffset":12081504,"byteLength":37248,"target":34962},{"buffer":0,"byteOffset":12118752,"byteLength":55872,"target":34962},{"buffer":0,"byteOffset":12174624,"byteLength":116280,"target":34962},{"buffer":0,"byteOffset":12290904,"byteLength":116280,"target":34962},{"buffer":0,"byteOffset":12407184,"byteLength":77520,"target":34962},{"buffer":0,"byteOffset":12484704,"byteLength":116280,"target":34962},{"buffer":0,"byteOffset":12600984,"byteLength":9792,"target":34962},{"buffer":0,"byteOffset":12610776,"byteLength":9792,"target":34962},{"buffer":0,"byteOffset":12620568,"byteLength":6528,"target":34962},{"buffer":0,"byteOffset":12627096,"byteLength":9792,"target":34962},{"buffer":0,"byteOffset":12636888,"byteLength":16272,"target":34962},{"buffer":0,"byteOffset":12653160,"byteLength":16272,"target":34962},{"buffer":0,"byteOffset":12669432,"byteLength":10848,"target":34962},{"buffer":0,"byteOffset":12680280,"byteLength":16272,"target":34962},{"buffer":0,"byteOffset":12696552,"byteLength":2124,"target":34962},{"buffer":0,"byteOffset":12698676,"byteLength":2124,"target":34962},{"buffer":0,"byteOffset":12700800,"byteLength":1416,"target":34962},{"buffer":0,"byteOffset":12702216,"byteLength":2124,"target":34962},{"buffer":0,"byteOffset":12704340,"byteLength":1728,"target":34962},{"buffer":0,"byteOffset":12706068,"byteLength":1728,"target":34962},{"buffer":0,"byteOffset":12707796,"byteLength":1152,"target":34962},{"buffer":0,"byteOffset":12708948,"byteLength":1728,"target":34962},{"buffer":0,"byteOffset":12710676,"byteLength":1476,"target":34962},{"buffer":0,"byteOffset":12712152,"byteLength":1476,"target":34962},{"buffer":0,"byteOffset":12713628,"byteLength":984,"target":34962},{"buffer":0,"byteOffset":12714612,"byteLength":1476,"target":34962},{"buffer":0,"byteOffset":12716088,"byteLength":5184,"target":34962},{"buffer":0,"byteOffset":12721272,"byteLength":5184,"target":34962},{"buffer":0,"byteOffset":12726456,"byteLength":3456,"target":34962},{"buffer":0,"byteOffset":12729912,"byteLength":5184,"target":34962},{"buffer":0,"byteOffset":12735096,"byteLength":4104,"target":34962},{"buffer":0,"byteOffset":12739200,"byteLength":4104,"target":34962},{"buffer":0,"byteOffset":12743304,"byteLength":2736,"target":34962},{"buffer":0,"byteOffset":12746040,"byteLength":4104,"target":34962},{"buffer":0,"byteOffset":12750144,"byteLength":171900,"target":34962},{"buffer":0,"byteOffset":12922044,"byteLength":171900,"target":34962},{"buffer":0,"byteOffset":13093944,"byteLength":114600,"target":34962},{"buffer":0,"byteOffset":13208544,"byteLength":171900,"target":34962},{"buffer":0,"byteOffset":13380444,"byteLength":591012,"target":34962},{"buffer":0,"byteOffset":13971456,"byteLength":591012,"target":34962},{"buffer":0,"byteOffset":14562468,"byteLength":394008,"target":34962},{"buffer":0,"byteOffset":14956476,"byteLength":591012,"target":34962},{"buffer":0,"byteOffset":15547488,"byteLength":108360,"target":34962},{"buffer":0,"byteOffset":15655848,"byteLength":108360,"target":34962},{"buffer":0,"byteOffset":15764208,"byteLength":72240,"target":34962},{"buffer":0,"byteOffset":15836448,"byteLength":108360,"target":34962},{"buffer":0,"byteOffset":15944808,"byteLength":19008,"target":34962},{"buffer":0,"byteOffset":15963816,"byteLength":19008,"target":34962},{"buffer":0,"byteOffset":15982824,"byteLength":12672,"target":34962},{"buffer":0,"byteOffset":15995496,"byteLength":19008,"target":34962},{"buffer":0,"byteOffset":16014504,"byteLength":2016,"target":34962},{"buffer":0,"byteOffset":16016520,"byteLength":2016,"target":34962},{"buffer":0,"byteOffset":16018536,"byteLength":1344,"target":34962},{"buffer":0,"byteOffset":16019880,"byteLength":2016,"target":34962},{"buffer":0,"byteOffset":16021896,"byteLength":353628,"target":34962},{"buffer":0,"byteOffset":16375524,"byteLength":353628,"target":34962},{"buffer":0,"byteOffset":16729152,"byteLength":235752,"target":34962},{"buffer":0,"byteOffset":16964904,"byteLength":353628,"target":34962},{"buffer":0,"byteOffset":17318532,"byteLength":230112,"target":34962},{"buffer":0,"byteOffset":17548644,"byteLength":230112,"target":34962},{"buffer":0,"byteOffset":17778756,"byteLength":153408,"target":34962},{"buffer":0,"byteOffset":17932164,"byteLength":230112,"target":34962},{"buffer":0,"byteOffset":18162276,"byteLength":65232,"target":34962},{"buffer":0,"byteOffset":18227508,"byteLength":65232,"target":34962},{"buffer":0,"byteOffset":18292740,"byteLength":43488,"target":34962},{"buffer":0,"byteOffset":18336228,"byteLength":65232,"target":34962},{"buffer":0,"byteOffset":18401460,"byteLength":20736,"target":34962},{"buffer":0,"byteOffset":18422196,"byteLength":20736,"target":34962},{"buffer":0,"byteOffset":18442932,"byteLength":13824,"target":34962},{"buffer":0,"byteOffset":18456756,"byteLength":20736,"target":34962},{"buffer":0,"byteOffset":18477492,"byteLength":5832,"target":34962},{"buffer":0,"byteOffset":18483324,"byteLength":5832,"target":34962},{"buffer":0,"byteOffset":18489156,"byteLength":3888,"target":34962},{"buffer":0,"byteOffset":18493044,"byteLength":5832,"target":34962},{"buffer":0,"byteOffset":18498876,"byteLength":936,"target":34962},{"buffer":0,"byteOffset":18499812,"byteLength":936,"target":34962},{"buffer":0,"byteOffset":18500748,"byteLength":624,"target":34962},{"buffer":0,"byteOffset":18501372,"byteLength":936,"target":34962},{"buffer":0,"byteOffset":18502308,"byteLength":40320,"target":34962},{"buffer":0,"byteOffset":18542628,"byteLength":40320,"target":34962},{"buffer":0,"byteOffset":18582948,"byteLength":26880,"target":34962},{"buffer":0,"byteOffset":18609828,"byteLength":40320,"target":34962},{"buffer":0,"byteOffset":18650148,"byteLength":123912,"target":34962},{"buffer":0,"byteOffset":18774060,"byteLength":123912,"target":34962},{"buffer":0,"byteOffset":18897972,"byteLength":82608,"target":34962},{"buffer":0,"byteOffset":18980580,"byteLength":123912,"target":34962},{"buffer":0,"byteOffset":19104492,"byteLength":18720,"target":34962},{"buffer":0,"byteOffset":19123212,"byteLength":18720,"target":34962},{"buffer":0,"byteOffset":19141932,"byteLength":12480,"target":34962},{"buffer":0,"byteOffset":19154412,"byteLength":18720,"target":34962},{"buffer":0,"byteOffset":19173132,"byteLength":11700,"target":34962},{"buffer":0,"byteOffset":19184832,"byteLength":11700,"target":34962},{"buffer":0,"byteOffset":19196532,"byteLength":7800,"target":34962},{"buffer":0,"byteOffset":19204332,"byteLength":11700,"target":34962},{"buffer":0,"byteOffset":19216032,"byteLength":9072,"target":34962},{"buffer":0,"byteOffset":19225104,"byteLength":9072,"target":34962},{"buffer":0,"byteOffset":19234176,"byteLength":6048,"target":34962},{"buffer":0,"byteOffset":19240224,"byteLength":9072,"target":34962},{"buffer":0,"byteOffset":19249296,"byteLength":3888,"target":34962},{"buffer":0,"byteOffset":19253184,"byteLength":3888,"target":34962},{"buffer":0,"byteOffset":19257072,"byteLength":2592,"target":34962},{"buffer":0,"byteOffset":19259664,"byteLength":3888,"target":34962},{"buffer":0,"byteOffset":19263552,"byteLength":16740,"target":34962},{"buffer":0,"byteOffset":19280292,"byteLength":16740,"target":34962},{"buffer":0,"byteOffset":19297032,"byteLength":11160,"target":34962},{"buffer":0,"byteOffset":19308192,"byteLength":16740,"target":34962},{"buffer":0,"byteOffset":19324932,"byteLength":23508,"target":34962},{"buffer":0,"byteOffset":19348440,"byteLength":23508,"target":34962},{"buffer":0,"byteOffset":19371948,"byteLength":15672,"target":34962},{"buffer":0,"byteOffset":19387620,"byteLength":23508,"target":34962},{"buffer":0,"byteOffset":19411128,"byteLength":308376,"target":34962},{"buffer":0,"byteOffset":19719504,"byteLength":308376,"target":34962},{"buffer":0,"byteOffset":20027880,"byteLength":205584,"target":34962},{"buffer":0,"byteOffset":20233464,"byteLength":308376,"target":34962},{"buffer":0,"byteOffset":20541840,"byteLength":2052,"target":34962},{"buffer":0,"byteOffset":20543892,"byteLength":2052,"target":34962},{"buffer":0,"byteOffset":20545944,"byteLength":1368,"target":34962},{"buffer":0,"byteOffset":20547312,"byteLength":2052,"target":34962},{"buffer":0,"byteOffset":20549364,"byteLength":144,"target":34962},{"buffer":0,"byteOffset":20549508,"byteLength":144,"target":34962},{"buffer":0,"byteOffset":20549652,"byteLength":96,"target":34962},{"buffer":0,"byteOffset":20549748,"byteLength":144,"target":34962},{"buffer":0,"byteOffset":20549892,"byteLength":55692,"target":34962},{"buffer":0,"byteOffset":20605584,"byteLength":55692,"target":34962},{"buffer":0,"byteOffset":20661276,"byteLength":37128,"target":34962},{"buffer":0,"byteOffset":20698404,"byteLength":55692,"target":34962},{"buffer":0,"byteOffset":20754096,"byteLength":2304,"target":34962},{"buffer":0,"byteOffset":20756400,"byteLength":2304,"target":34962},{"buffer":0,"byteOffset":20758704,"byteLength":1536,"target":34962},{"buffer":0,"byteOffset":20760240,"byteLength":2304,"target":34962},{"buffer":0,"byteOffset":20762544,"byteLength":14688,"target":34962},{"buffer":0,"byteOffset":20777232,"byteLength":14688,"target":34962},{"buffer":0,"byteOffset":20791920,"byteLength":9792,"target":34962},{"buffer":0,"byteOffset":20801712,"byteLength":14688,"target":34962},{"buffer":0,"byteOffset":20816400,"byteLength":864,"target":34962},{"buffer":0,"byteOffset":20817264,"byteLength":864,"target":34962},{"buffer":0,"byteOffset":20818128,"byteLength":576,"target":34962},{"buffer":0,"byteOffset":20818704,"byteLength":864,"target":34962},{"buffer":0,"byteOffset":20819568,"byteLength":2880,"target":34962},{"buffer":0,"byteOffset":20822448,"byteLength":2880,"target":34962},{"buffer":0,"byteOffset":20825328,"byteLength":1920,"target":34962},{"buffer":0,"byteOffset":20827248,"byteLength":2880,"target":34962}],"accessors":[{"bufferView":0,"componentType":5126,"count":1110,"type":"VEC3","min":[-164.2119598388672,1.6492761373519897,-173.29779052734375],"max":[154.4882049560547,60.366119384765625,241.35565185546875]},{"bufferView":1,"componentType":5126,"count":1110,"type":"VEC3"},{"bufferView":2,"componentType":5126,"count":1110,"type":"VEC2"},{"bufferView":3,"componentType":5126,"count":1110,"type":"VEC3"},{"bufferView":4,"componentType":5126,"count":30228,"type":"VEC3","min":[-165.8114471435547,-0.25496581196784973,-173.29779052734375],"max":[174.92271423339844,83.507568359375,228.07826232910156]},{"bufferView":5,"componentType":5126,"count":30228,"type":"VEC3"},{"bufferView":6,"componentType":5126,"count":30228,"type":"VEC2"},{"bufferView":7,"componentType":5126,"count":30228,"type":"VEC3"},{"bufferView":8,"componentType":5126,"count":118572,"type":"VEC3","min":[-163.3020477294922,-3.069023370742798,-173.29774475097656],"max":[174.92271423339844,80.9048843383789,227.49679565429688]},{"bufferView":9,"componentType":5126,"count":118572,"type":"VEC3"},{"bufferView":10,"componentType":5126,"count":118572,"type":"VEC2"},{"bufferView":11,"componentType":5126,"count":118572,"type":"VEC3"},{"bufferView":12,"componentType":5126,"count":3972,"type":"VEC3","min":[-165.8114471435547,-4.882812390860636e-06,-173.2978057861328],"max":[174.92269897460938,74.06880187988281,241.35565185546875]},{"bufferView":13,"componentType":5126,"count":3972,"type":"VEC3"},{"bufferView":14,"componentType":5126,"count":3972,"type":"VEC2"},{"bufferView":15,"componentType":5126,"count":3972,"type":"VEC3"},{"bufferView":16,"componentType":5126,"count":5448,"type":"VEC3","min":[-117.0082778930664,0.18289917707443237,-108.08167266845703],"max":[137.57040405273438,14.025405883789062,67.3953628540039]},{"bufferView":17,"componentType":5126,"count":5448,"type":"VEC3"},{"bufferView":18,"componentType":5126,"count":5448,"type":"VEC2"},{"bufferView":19,"componentType":5126,"count":5448,"type":"VEC3"},{"bufferView":20,"componentType":5126,"count":1803,"type":"VEC3","min":[-126.93390655517578,0.0,-130.6369171142578],"max":[136.1016845703125,51.30908203125,185.2565155029297]},{"bufferView":21,"componentType":5126,"count":1803,"type":"VEC3"},{"bufferView":22,"componentType":5126,"count":1803,"type":"VEC2"},{"bufferView":23,"componentType":5126,"count":1803,"type":"VEC3"},{"bufferView":24,"componentType":5126,"count":6171,"type":"VEC3","min":[-104.07843780517578,-3.201401472091675,-118.35836791992188],"max":[165.59780883789062,29.014453887939453,185.25645446777344]},{"bufferView":25,"componentType":5126,"count":6171,"type":"VEC3"},{"bufferView":26,"componentType":5126,"count":6171,"type":"VEC2"},{"bufferView":27,"componentType":5126,"count":6171,"type":"VEC3"},{"bufferView":28,"componentType":5126,"count":48747,"type":"VEC3","min":[-100.6474609375,-5.410265922546387,-118.12610626220703],"max":[88.29867553710938,13.272775650024414,56.2773551940918]},{"bufferView":29,"componentType":5126,"count":48747,"type":"VEC3"},{"bufferView":30,"componentType":5126,"count":48747,"type":"VEC2"},{"bufferView":31,"componentType":5126,"count":48747,"type":"VEC3"},{"bufferView":32,"componentType":5126,"count":2352,"type":"VEC3","min":[-91.4418716430664,-0.0002075195370707661,-108.43921661376953],"max":[68.22759246826172,0.026943359524011612,41.559608459472656]},{"bufferView":33,"componentType":5126,"count":2352,"type":"VEC3"},{"bufferView":34,"componentType":5126,"count":2352,"type":"VEC2"},{"bufferView":35,"componentType":5126,"count":2352,"type":"VEC3"},{"bufferView":36,"componentType":5126,"count":555,"type":"VEC3","min":[-94.42732238769531,0.0,-109.04598999023438],"max":[58.00971221923828,1.9531249563442543e-05,40.997802734375]},{"bufferView":37,"componentType":5126,"count":555,"type":"VEC3"},{"bufferView":38,"componentType":5126,"count":555,"type":"VEC2"},{"bufferView":39,"componentType":5126,"count":555,"type":"VEC3"},{"bufferView":40,"componentType":5126,"count":681,"type":"VEC3","min":[-81.99024963378906,0.0,-99.00218200683594],"max":[58.00971221923828,2.441406195430318e-06,31.14175796508789]},{"bufferView":41,"componentType":5126,"count":681,"type":"VEC3"},{"bufferView":42,"componentType":5126,"count":681,"type":"VEC2"},{"bufferView":43,"componentType":5126,"count":681,"type":"VEC3"},{"bufferView":44,"componentType":5126,"count":426,"type":"VEC3","min":[-82.00699615478516,0.0,-99.00352478027344],"max":[58.00971221923828,2.441406195430318e-06,30.997802734375]},{"bufferView":45,"componentType":5126,"count":426,"type":"VEC3"},{"bufferView":46,"componentType":5126,"count":426,"type":"VEC2"},{"bufferView":47,"componentType":5126,"count":426,"type":"VEC3"},{"bufferView":48,"componentType":5126,"count":627,"type":"VEC3","min":[-94.4266128540039,-5.1269529649289325e-05,-111.44538116455078],"max":[68.00970458984375,0.018291015177965164,47.048404693603516]},{"bufferView":49,"componentType":5126,"count":627,"type":"VEC3"},{"bufferView":50,"componentType":5126,"count":627,"type":"VEC2"},{"bufferView":51,"componentType":5126,"count":627,"type":"VEC3"},{"bufferView":52,"componentType":5126,"count":390,"type":"VEC3","min":[-32.688961029052734,0.0,-107.36141967773438],"max":[71.15885925292969,0.05884033069014549,43.6424674987793]},{"bufferView":53,"componentType":5126,"count":390,"type":"VEC3"},{"bufferView":54,"componentType":5126,"count":390,"type":"VEC2"},{"bufferView":55,"componentType":5126,"count":390,"type":"VEC3"},{"bufferView":56,"componentType":5126,"count":2502,"type":"VEC3","min":[-98.49027252197266,-2.441406195430318e-06,-115.5021743774414],"max":[71.15850830078125,4.746023178100586,40.8852653503418]},{"bufferView":57,"componentType":5126,"count":2502,"type":"VEC3"},{"bufferView":58,"componentType":5126,"count":2502,"type":"VEC2"},{"bufferView":59,"componentType":5126,"count":2502,"type":"VEC3"},{"bufferView":60,"componentType":5126,"count":108,"type":"VEC3","min":[-88.19680786132812,-0.07268066704273224,-105.20869445800781],"max":[54.21625518798828,2.441406195430318e-06,37.2043342590332]},{"bufferView":61,"componentType":5126,"count":108,"type":"VEC3"},{"bufferView":62,"componentType":5126,"count":108,"type":"VEC2"},{"bufferView":63,"componentType":5126,"count":108,"type":"VEC3"},{"bufferView":64,"componentType":5126,"count":27780,"type":"VEC3","min":[-101.63554382324219,0.12085693329572678,-117.22821044921875],"max":[67.16688537597656,20.6982421875,38.033145904541016]},{"bufferView":65,"componentType":5126,"count":27780,"type":"VEC3"},{"bufferView":66,"componentType":5126,"count":27780,"type":"VEC2"},{"bufferView":67,"componentType":5126,"count":27780,"type":"VEC3"},{"bufferView":68,"componentType":5126,"count":1848,"type":"VEC3","min":[-88.64122772216797,-3.201401472091675,-105.6530990600586],"max":[54.66065979003906,0.9763622879981995,37.648738861083984]},{"bufferView":69,"componentType":5126,"count":1848,"type":"VEC3"},{"bufferView":70,"componentType":5126,"count":1848,"type":"VEC2"},{"bufferView":71,"componentType":5126,"count":1848,"type":"VEC3"},{"bufferView":72,"componentType":5126,"count":8874,"type":"VEC3","min":[-48.47042465209961,0.5280663967132568,-98.8650894165039],"max":[82.00981903076172,46.639923095703125,-10.557329177856445]},{"bufferView":73,"componentType":5126,"count":8874,"type":"VEC3"},{"bufferView":74,"componentType":5126,"count":8874,"type":"VEC2"},{"bufferView":75,"componentType":5126,"count":8874,"type":"VEC3"},{"bufferView":76,"componentType":5126,"count":186,"type":"VEC3","min":[-53.456844329833984,4.73916482925415,-90.17654418945312],"max":[79.57330322265625,33.033817291259766,-4.768911361694336]},{"bufferView":77,"componentType":5126,"count":186,"type":"VEC3"},{"bufferView":78,"componentType":5126,"count":186,"type":"VEC2"},{"bufferView":79,"componentType":5126,"count":186,"type":"VEC3"},{"bufferView":80,"componentType":5126,"count":5556,"type":"VEC3","min":[-127.5844955444336,0.0,-162.794189453125],"max":[165.59780883789062,15.019033432006836,126.10346984863281]},{"bufferView":81,"componentType":5126,"count":5556,"type":"VEC3"},{"bufferView":82,"componentType":5126,"count":5556,"type":"VEC2"},{"bufferView":83,"componentType":5126,"count":5556,"type":"VEC3"},{"bufferView":84,"componentType":5126,"count":3420,"type":"VEC3","min":[-104.07843780517578,-5.410265922546387,-130.629150390625],"max":[131.94598388671875,26.769838333129883,144.0587615966797]},{"bufferView":85,"componentType":5126,"count":3420,"type":"VEC3"},{"bufferView":86,"componentType":5126,"count":3420,"type":"VEC2"},{"bufferView":87,"componentType":5126,"count":3420,"type":"VEC3"},{"bufferView":88,"componentType":5126,"count":18,"type":"VEC3","min":[76.40127563476562,8.676255226135254,-21.327787399291992],"max":[76.40252685546875,12.192998886108398,-7.791982650756836]},{"bufferView":89,"componentType":5126,"count":18,"type":"VEC3"},{"bufferView":90,"componentType":5126,"count":18,"type":"VEC2"},{"bufferView":91,"componentType":5126,"count":18,"type":"VEC3"},{"bufferView":92,"componentType":5126,"count":666,"type":"VEC3","min":[-56.49815368652344,2.441406195430318e-06,-73.5218505859375],"max":[162.3954315185547,48.53102493286133,145.64068603515625]},{"bufferView":93,"componentType":5126,"count":666,"type":"VEC3"},{"bufferView":94,"componentType":5126,"count":666,"type":"VEC2"},{"bufferView":95,"componentType":5126,"count":666,"type":"VEC3"},{"bufferView":96,"componentType":5126,"count":4656,"type":"VEC3","min":[-107.6513442993164,-2.883007764816284,-113.65118408203125],"max":[115.9526596069336,57.3926887512207,78.44599914550781]},{"bufferView":97,"componentType":5126,"count":4656,"type":"VEC3"},{"bufferView":98,"componentType":5126,"count":4656,"type":"VEC2"},{"bufferView":99,"componentType":5126,"count":4656,"type":"VEC3"},{"bufferView":100,"componentType":5126,"count":9690,"type":"VEC3","min":[-101.40978240966797,1.7772948741912842,-117.00243377685547],"max":[66.94113159179688,17.684045791625977,50.42185592651367]},{"bufferView":101,"componentType":5126,"count":9690,"type":"VEC3"},{"bufferView":102,"componentType":5126,"count":9690,"type":"VEC2"},{"bufferView":103,"componentType":5126,"count":9690,"type":"VEC3"},{"bufferView":104,"componentType":5126,"count":816,"type":"VEC3","min":[-101.31961059570312,5.480877876281738,-118.79824829101562],"max":[88.97080993652344,24.8349666595459,50.03876495361328]},{"bufferView":105,"componentType":5126,"count":816,"type":"VEC3"},{"bufferView":106,"componentType":5126,"count":816,"type":"VEC2"},{"bufferView":107,"componentType":5126,"count":816,"type":"VEC3"},{"bufferView":108,"componentType":5126,"count":1356,"type":"VEC3","min":[-115.74097442626953,4.746020317077637,-132.75286865234375],"max":[62.666202545166016,24.40296173095703,34.149871826171875]},{"bufferView":109,"componentType":5126,"count":1356,"type":"VEC3"},{"bufferView":110,"componentType":5126,"count":1356,"type":"VEC2"},{"bufferView":111,"componentType":5126,"count":1356,"type":"VEC3"},{"bufferView":112,"componentType":5126,"count":177,"type":"VEC3","min":[-117.00830078125,0.0,-111.28069305419922],"max":[131.16851806640625,25.918296813964844,77.26361083984375]},{"bufferView":113,"componentType":5126,"count":177,"type":"VEC3"},{"bufferView":114,"componentType":5126,"count":177,"type":"VEC2"},{"bufferView":115,"componentType":5126,"count":177,"type":"VEC3"},{"bufferView":116,"componentType":5126,"count":144,"type":"VEC3","min":[-39.01995086669922,3.9828906059265137,-39.33827590942383],"max":[-1.6822412014007568,3.9828906059265137,-28.86054229736328]},{"bufferView":117,"componentType":5126,"count":144,"type":"VEC3"},{"bufferView":118,"componentType":5126,"count":144,"type":"VEC2"},{"bufferView":119,"componentType":5126,"count":144,"type":"VEC3"},{"bufferView":120,"componentType":5126,"count":123,"type":"VEC3","min":[-39.01997375488281,3.9828906059265137,-49.374202728271484],"max":[-1.682104468345642,3.982891798019409,-18.707948684692383]},{"bufferView":121,"componentType":5126,"count":123,"type":"VEC3"},{"bufferView":122,"componentType":5126,"count":123,"type":"VEC2"},{"bufferView":123,"componentType":5126,"count":123,"type":"VEC3"},{"bufferView":124,"componentType":5126,"count":432,"type":"VEC3","min":[-54.302040100097656,2.441406195430318e-06,5.192060470581055],"max":[8.595341682434082,3.9554810523986816,5.38852071762085]},{"bufferView":125,"componentType":5126,"count":432,"type":"VEC3"},{"bufferView":126,"componentType":5126,"count":432,"type":"VEC2"},{"bufferView":127,"componentType":5126,"count":432,"type":"VEC3"},{"bufferView":128,"componentType":5126,"count":342,"type":"VEC3","min":[-56.4981575012207,2.441406195430318e-06,-73.5218276977539],"max":[22.346723556518555,7.624701976776123,0.039741210639476776]},{"bufferView":129,"componentType":5126,"count":342,"type":"VEC3"},{"bufferView":130,"componentType":5126,"count":342,"type":"VEC2"},{"bufferView":131,"componentType":5126,"count":342,"type":"VEC3"},{"bufferView":132,"componentType":5126,"count":14325,"type":"VEC3","min":[-53.45909118652344,4.09255838394165,-70.43986511230469],"max":[-0.3866650462150574,14.764257431030273,-17.410629272460938]},{"bufferView":133,"componentType":5126,"count":14325,"type":"VEC3"},{"bufferView":134,"componentType":5126,"count":14325,"type":"VEC2"},{"bufferView":135,"componentType":5126,"count":14325,"type":"VEC3"},{"bufferView":136,"componentType":5126,"count":49251,"type":"VEC3","min":[-56.252906799316406,3.9609899520874023,-72.8283920288086],"max":[2.0001220703125,14.764257431030273,-14.619633674621582]},{"bufferView":137,"componentType":5126,"count":49251,"type":"VEC3"},{"bufferView":138,"componentType":5126,"count":49251,"type":"VEC2"},{"bufferView":139,"componentType":5126,"count":49251,"type":"VEC3"},{"bufferView":140,"componentType":5126,"count":9030,"type":"VEC3","min":[-84.06976318359375,-0.009899902157485485,-73.62313079833984],"max":[22.4480037689209,13.225698471069336,32.752017974853516]},{"bufferView":141,"componentType":5126,"count":9030,"type":"VEC3"},{"bufferView":142,"componentType":5126,"count":9030,"type":"VEC2"},{"bufferView":143,"componentType":5126,"count":9030,"type":"VEC3"},{"bufferView":144,"componentType":5126,"count":1584,"type":"VEC3","min":[-84.05618286132812,-0.00863037072122097,-73.39087677001953],"max":[44.95338821411133,9.401528358459473,49.394535064697266]},{"bufferView":145,"componentType":5126,"count":1584,"type":"VEC3"},{"bufferView":146,"componentType":5126,"count":1584,"type":"VEC2"},{"bufferView":147,"componentType":5126,"count":1584,"type":"VEC3"},{"bufferView":148,"componentType":5126,"count":168,"type":"VEC3","min":[-56.36720275878906,2.441406195430318e-06,-73.39087677001953],"max":[22.21575164794922,3.696098566055298,5.192060470581055]},{"bufferView":149,"componentType":5126,"count":168,"type":"VEC3"},{"bufferView":150,"componentType":5126,"count":168,"type":"VEC2"},{"bufferView":151,"componentType":5126,"count":168,"type":"VEC3"},{"bufferView":152,"componentType":5126,"count":29469,"type":"VEC3","min":[-142.3848876953125,-4.882812390860636e-06,-141.13467407226562],"max":[174.92271423339844,48.1884880065918,209.05274963378906]},{"bufferView":153,"componentType":5126,"count":29469,"type":"VEC3"},{"bufferView":154,"componentType":5126,"count":29469,"type":"VEC2"},{"bufferView":155,"componentType":5126,"count":29469,"type":"VEC3"},{"bufferView":156,"componentType":5126,"count":19176,"type":"VEC3","min":[-102.95323944091797,2.5558862686157227,-118.99382019042969],"max":[89.16638946533203,25.393627166748047,54.579891204833984]},{"bufferView":157,"componentType":5126,"count":19176,"type":"VEC3"},{"bufferView":158,"componentType":5126,"count":19176,"type":"VEC2"},{"bufferView":159,"componentType":5126,"count":19176,"type":"VEC3"},{"bufferView":160,"componentType":5126,"count":5436,"type":"VEC3","min":[-156.13363647460938,4.464274883270264,-139.66700744628906],"max":[136.52117919921875,41.11650848388672,185.09983825683594]},{"bufferView":161,"componentType":5126,"count":5436,"type":"VEC3"},{"bufferView":162,"componentType":5126,"count":5436,"type":"VEC2"},{"bufferView":163,"componentType":5126,"count":5436,"type":"VEC3"},{"bufferView":164,"componentType":5126,"count":1728,"type":"VEC3","min":[-126.93386840820312,4.157372951507568,-143.9457550048828],"max":[131.1685028076172,17.561128616333008,126.10344696044922]},{"bufferView":165,"componentType":5126,"count":1728,"type":"VEC3"},{"bufferView":166,"componentType":5126,"count":1728,"type":"VEC2"},{"bufferView":167,"componentType":5126,"count":1728,"type":"VEC3"},{"bufferView":168,"componentType":5126,"count":486,"type":"VEC3","min":[-165.8114471435547,4.746020317077637,-173.29774475097656],"max":[174.92271423339844,48.1884880065918,185.25648498535156]},{"bufferView":169,"componentType":5126,"count":486,"type":"VEC3"},{"bufferView":170,"componentType":5126,"count":486,"type":"VEC2"},{"bufferView":171,"componentType":5126,"count":486,"type":"VEC3"},{"bufferView":172,"componentType":5126,"count":78,"type":"VEC3","min":[-49.476619720458984,17.561126708984375,-118.35836791992188],"max":[131.94598388671875,25.918296813964844,142.39849853515625]},{"bufferView":173,"componentType":5126,"count":78,"type":"VEC3"},{"bufferView":174,"componentType":5126,"count":78,"type":"VEC2"},{"bufferView":175,"componentType":5126,"count":78,"type":"VEC3"},{"bufferView":176,"componentType":5126,"count":3360,"type":"VEC3","min":[-91.9903335571289,3.784721612930298,-109.00215911865234],"max":[130.30303955078125,29.798452377319336,140.755615234375]},{"bufferView":177,"componentType":5126,"count":3360,"type":"VEC3"},{"bufferView":178,"componentType":5126,"count":3360,"type":"VEC2"},{"bufferView":179,"componentType":5126,"count":3360,"type":"VEC3"},{"bufferView":180,"componentType":5126,"count":10326,"type":"VEC3","min":[-143.7160186767578,0.5280663967132568,-141.6212921142578],"max":[124.48011779785156,43.1456298828125,176.82423400878906]},{"bufferView":181,"componentType":5126,"count":10326,"type":"VEC3"},{"bufferView":182,"componentType":5126,"count":10326,"type":"VEC2"},{"bufferView":183,"componentType":5126,"count":10326,"type":"VEC3"},{"bufferView":184,"componentType":5126,"count":1560,"type":"VEC3","min":[-102.46949005126953,4.157370567321777,-119.37637329101562],"max":[-2.8567090034484863,20.62193489074707,52.462364196777344]},{"bufferView":185,"componentType":5126,"count":1560,"type":"VEC3"},{"bufferView":186,"componentType":5126,"count":1560,"type":"VEC2"},{"bufferView":187,"componentType":5126,"count":1560,"type":"VEC3"},{"bufferView":188,"componentType":5126,"count":975,"type":"VEC3","min":[-288.32989501953125,12.869836807250977,-151.5544891357422],"max":[-288.3298034667969,83.59733581542969,160.675537109375]},{"bufferView":189,"componentType":5126,"count":975,"type":"VEC3"},{"bufferView":190,"componentType":5126,"count":975,"type":"VEC2"},{"bufferView":191,"componentType":5126,"count":975,"type":"VEC3"},{"bufferView":192,"componentType":5126,"count":756,"type":"VEC3","min":[-162.21820068359375,28.86709976196289,-169.567626953125],"max":[125.38298034667969,74.06880187988281,44.146697998046875]},{"bufferView":193,"componentType":5126,"count":756,"type":"VEC3"},{"bufferView":194,"componentType":5126,"count":756,"type":"VEC2"},{"bufferView":195,"componentType":5126,"count":756,"type":"VEC3"},{"bufferView":196,"componentType":5126,"count":324,"type":"VEC3","min":[120.06519317626953,18.882972717285156,-115.77086639404297],"max":[155.45272827148438,39.58790588378906,-42.61301803588867]},{"bufferView":197,"componentType":5126,"count":324,"type":"VEC3"},{"bufferView":198,"componentType":5126,"count":324,"type":"VEC2"},{"bufferView":199,"componentType":5126,"count":324,"type":"VEC3"},{"bufferView":200,"componentType":5126,"count":1395,"type":"VEC3","min":[-127.5844955444336,0.18289917707443237,40.88520431518555],"max":[60.097225189208984,4.157365798950195,41.65516662597656]},{"bufferView":201,"componentType":5126,"count":1395,"type":"VEC3"},{"bufferView":202,"componentType":5126,"count":1395,"type":"VEC2"},{"bufferView":203,"componentType":5126,"count":1395,"type":"VEC3"},{"bufferView":204,"componentType":5126,"count":1959,"type":"VEC3","min":[-35.3905143737793,0.18289917707443237,41.655147552490234],"max":[50.797325134277344,3.714202880859375,56.2773551940918]},{"bufferView":205,"componentType":5126,"count":1959,"type":"VEC3"},{"bufferView":206,"componentType":5126,"count":1959,"type":"VEC2"},{"bufferView":207,"componentType":5126,"count":1959,"type":"VEC3"},{"bufferView":208,"componentType":5126,"count":25698,"type":"VEC3","min":[-52.79507827758789,0.009693603962659836,-69.77735137939453],"max":[50.145408630371094,13.879003524780273,54.85901641845703]},{"bufferView":209,"componentType":5126,"count":25698,"type":"VEC3"},{"bufferView":210,"componentType":5126,"count":25698,"type":"VEC2"},{"bufferView":211,"componentType":5126,"count":25698,"type":"VEC3"},{"bufferView":212,"componentType":5126,"count":171,"type":"VEC3","min":[74.78496551513672,23.34394073486328,35.11288070678711],"max":[134.44305419921875,51.30908203125,83.53719329833984]},{"bufferView":213,"componentType":5126,"count":171,"type":"VEC3"},{"bufferView":214,"componentType":5126,"count":171,"type":"VEC2"},{"bufferView":215,"componentType":5126,"count":171,"type":"VEC3"},{"bufferView":216,"componentType":5126,"count":12,"type":"VEC3","min":[75.1750259399414,21.171079635620117,37.07392883300781],"max":[75.17504119873047,22.901906967163086,41.986976623535156]},{"bufferView":217,"componentType":5126,"count":12,"type":"VEC3"},{"bufferView":218,"componentType":5126,"count":12,"type":"VEC2"},{"bufferView":219,"componentType":5126,"count":12,"type":"VEC3"},{"bufferView":220,"componentType":5126,"count":4641,"type":"VEC3","min":[-52.79507827758789,3.875002384185791,-69.77735900878906],"max":[-1.0512793064117432,13.635863304138184,-18.08843231201172]},{"bufferView":221,"componentType":5126,"count":4641,"type":"VEC3"},{"bufferView":222,"componentType":5126,"count":4641,"type":"VEC2"},{"bufferView":223,"componentType":5126,"count":4641,"type":"VEC3"},{"bufferView":224,"componentType":5126,"count":192,"type":"VEC3","min":[-51.537940979003906,3.9828906059265137,-69.26632690429688],"max":[-27.23664093017578,3.9828906059265137,-44.56422424316406]},{"bufferView":225,"componentType":5126,"count":192,"type":"VEC3"},{"bufferView":226,"componentType":5126,"count":192,"type":"VEC2"},{"bufferView":227,"componentType":5126,"count":192,"type":"VEC3"},{"bufferView":228,"componentType":5126,"count":1224,"type":"VEC3","min":[-53.30665588378906,5.826825141906738,-70.28968048095703],"max":[-0.5385986566543579,8.372776985168457,-40.71336364746094]},{"bufferView":229,"componentType":5126,"count":1224,"type":"VEC3"},{"bufferView":230,"componentType":5126,"count":1224,"type":"VEC2"},{"bufferView":231,"componentType":5126,"count":1224,"type":"VEC3"},{"bufferView":232,"componentType":5126,"count":72,"type":"VEC3","min":[-53.18931579589844,6.006850719451904,-70.1723403930664],"max":[-0.6559374928474426,8.248534202575684,-40.883628845214844]},{"bufferView":233,"componentType":5126,"count":72,"type":"VEC3"},{"bufferView":234,"componentType":5126,"count":72,"type":"VEC2"},{"bufferView":235,"componentType":5126,"count":72,"type":"VEC3"},{"bufferView":236,"componentType":5126,"count":240,"type":"VEC3","min":[-100.92117309570312,-6.247996807098389,-118.54023742675781],"max":[88.74240112304688,28.291301727294922,50.058387756347656]},{"bufferView":237,"componentType":5126,"count":240,"type":"VEC3"},{"bufferView":238,"componentType":5126,"count":240,"type":"VEC2"},{"bufferView":239,"componentType":5126,"count":240,"type":"VEC3"}],"materials":[{"name":"arena_metall_k20_0","pbrMetallicRoughness":{"baseColorFactor":[1,1,1,1],"metallicFactor":0.12,"roughnessFactor":0.7,"baseColorTexture":{"index":0}},"doubleSided":true},{"name":"arena_metall_k17_1","pbrMetallicRoughness":{"baseColorFactor":[1,1,1,1],"metallicFactor":0.12,"roughnessFactor":0.7,"baseColorTexture":{"index":1}},"doubleSided":true},{"name":"arena_metall_k13_2","pbrMetallicRoughness":{"baseColorFactor":[1,1,1,1],"metallicFactor":0.12,"roughnessFactor":0.7,"baseColorTexture":{"index":2}},"doubleSided":true},{"name":"arena_metall_k18_3","pbrMetallicRoughness":{"baseColorFactor":[1,1,1,1],"metallicFactor":0.12,"roughnessFactor":0.7,"baseColorTexture":{"index":3}},"doubleSided":true},{"name":"arena_metall_k14_4","pbrMetallicRoughness":{"baseColorFactor":[1,1,1,1],"metallicFactor":0.12,"roughnessFactor":0.7,"baseColorTexture":{"index":4}},"doubleSided":true},{"name":"arena_stone_b9_5","pbrMetallicRoughness":{"baseColorFactor":[1,1,1,1],"metallicFactor":0.0,"roughnessFactor":0.92,"baseColorTexture":{"index":5}},"doubleSided":true},{"name":"arena_stone_b8_6","pbrMetallicRoughness":{"baseColorFactor":[1,1,1,1],"metallicFactor":0.0,"roughnessFactor":0.92,"baseColorTexture":{"index":6}},"doubleSided":true},{"name":"arena_grass_grd1_7","pbrMetallicRoughness":{"baseColorFactor":[1,1,1,1],"metallicFactor":0.0,"roughnessFactor":0.92,"baseColorTexture":{"index":7}},"doubleSided":true},{"name":"arena_land_grd1c_8","pbrMetallicRoughness":{"baseColorFactor":[1,1,1,1],"metallicFactor":0.0,"roughnessFactor":0.92,"baseColorTexture":{"index":8}},"doubleSided":true},{"name":"arena_land_grd1e_9","pbrMetallicRoughness":{"baseColorFactor":[1,1,1,1],"metallicFactor":0.0,"roughnessFactor":0.92,"baseColorTexture":{"index":9}},"doubleSided":true},{"name":"arena_land_grd1a_10","pbrMetallicRoughness":{"baseColorFactor":[1,1,1,1],"metallicFactor":0.0,"roughnessFactor":0.92,"baseColorTexture":{"index":10}},"doubleSided":true},{"name":"arena_land_grd1f_11","pbrMetallicRoughness":{"baseColorFactor":[1,1,1,1],"metallicFactor":0.0,"roughnessFactor":0.92,"baseColorTexture":{"index":11}},"doubleSided":true},{"name":"arena_land_grd1d_12","pbrMetallicRoughness":{"baseColorFactor":[1,1,1,1],"metallicFactor":0.0,"roughnessFactor":0.92,"baseColorTexture":{"index":12}},"doubleSided":true},{"name":"arena_land_grd1b_13","pbrMetallicRoughness":{"baseColorFactor":[1,1,1,1],"metallicFactor":0.0,"roughnessFactor":0.92,"baseColorTexture":{"index":13}},"doubleSided":true},{"name":"arena_stone_b12_14","pbrMetallicRoughness":{"baseColorFactor":[1,1,1,1],"metallicFactor":0.0,"roughnessFactor":0.92,"baseColorTexture":{"index":14}},"doubleSided":true},{"name":"arena_metall_k22_15","pbrMetallicRoughness":{"baseColorFactor":[1,1,1,1],"metallicFactor":0.12,"roughnessFactor":0.7,"baseColorTexture":{"index":15}},"doubleSided":true},{"name":"arena_turrel_uv_16","pbrMetallicRoughness":{"baseColorFactor":[1,1,1,1],"metallicFactor":0.12,"roughnessFactor":0.7,"baseColorTexture":{"index":16}},"doubleSided":true},{"name":"arena_grass_grd_tmp4_17","pbrMetallicRoughness":{"baseColorFactor":[1,1,1,1],"metallicFactor":0.0,"roughnessFactor":0.92,"baseColorTexture":{"index":17}},"doubleSided":true},{"name":"arena_garbage_m4_18","pbrMetallicRoughness":{"baseColorFactor":[1,1,1,1],"metallicFactor":0.0,"roughnessFactor":0.82,"baseColorTexture":{"index":18}},"doubleSided":true},{"name":"arena_plain_19","pbrMetallicRoughness":{"baseColorFactor":[1,1,1,1],"metallicFactor":0.0,"roughnessFactor":0.82},"doubleSided":true},{"name":"arena_grass_grd3e_20","pbrMetallicRoughness":{"baseColorFactor":[1,1,1,1],"metallicFactor":0.0,"roughnessFactor":0.92,"baseColorTexture":{"index":19}},"doubleSided":true},{"name":"arena_stone_b5_21","pbrMetallicRoughness":{"baseColorFactor":[1,1,1,1],"metallicFactor":0.0,"roughnessFactor":0.92,"baseColorTexture":{"index":20}},"doubleSided":true},{"name":"arena_metall_k7_22","pbrMetallicRoughness":{"baseColorFactor":[1,1,1,1],"metallicFactor":0.12,"roughnessFactor":0.7,"baseColorTexture":{"index":21}},"doubleSided":true},{"name":"arena_garbage_m6_23","pbrMetallicRoughness":{"baseColorFactor":[1,1,1,1],"metallicFactor":0.0,"roughnessFactor":0.82,"baseColorTexture":{"index":22}},"doubleSided":true},{"name":"arena_light_2_24","pbrMetallicRoughness":{"baseColorFactor":[1,1,1,1],"metallicFactor":0.0,"roughnessFactor":0.82,"baseColorTexture":{"index":23}},"doubleSided":true,"emissiveTexture":{"index":23},"emissiveFactor":[0.8,0.65,0.42]},{"name":"arena_armatur_k1_25","pbrMetallicRoughness":{"baseColorFactor":[1,1,1,1],"metallicFactor":0.12,"roughnessFactor":0.7,"baseColorTexture":{"index":24}},"doubleSided":true},{"name":"arena_light_5_26","pbrMetallicRoughness":{"baseColorFactor":[1,1,1,1],"metallicFactor":0.0,"roughnessFactor":0.82,"baseColorTexture":{"index":25}},"doubleSided":true,"emissiveTexture":{"index":25},"emissiveFactor":[0.8,0.65,0.42]},{"name":"arena_landwall_4_27","pbrMetallicRoughness":{"baseColorFactor":[1,1,1,1],"metallicFactor":0.0,"roughnessFactor":0.82,"baseColorTexture":{"index":26}},"doubleSided":true},{"name":"arena_metall_k6_28","pbrMetallicRoughness":{"baseColorFactor":[1,1,1,1],"metallicFactor":0.12,"roughnessFactor":0.7,"baseColorTexture":{"index":27}},"doubleSided":true},{"name":"arena_grass_grd3_29","pbrMetallicRoughness":{"baseColorFactor":[1,1,1,1],"metallicFactor":0.0,"roughnessFactor":0.92,"baseColorTexture":{"index":28}},"doubleSided":true},{"name":"arena_grass_grd3a_30","pbrMetallicRoughness":{"baseColorFactor":[1,1,1,1],"metallicFactor":0.0,"roughnessFactor":0.92,"baseColorTexture":{"index":29}},"doubleSided":true},{"name":"arena_metall_a1_31","pbrMetallicRoughness":{"baseColorFactor":[1,1,1,1],"metallicFactor":0.12,"roughnessFactor":0.7,"baseColorTexture":{"index":30}},"doubleSided":true},{"name":"arena_metall_k9_32","pbrMetallicRoughness":{"baseColorFactor":[1,1,1,1],"metallicFactor":0.12,"roughnessFactor":0.7,"baseColorTexture":{"index":31}},"doubleSided":true},{"name":"arena_brick_r4_33","pbrMetallicRoughness":{"baseColorFactor":[1,1,1,1],"metallicFactor":0.0,"roughnessFactor":0.82,"baseColorTexture":{"index":32}},"doubleSided":true},{"name":"arena_brick_r4b_34","pbrMetallicRoughness":{"baseColorFactor":[1,1,1,1],"metallicFactor":0.0,"roughnessFactor":0.82,"baseColorTexture":{"index":33}},"doubleSided":true},{"name":"arena_metall_k10_35","pbrMetallicRoughness":{"baseColorFactor":[1,1,1,1],"metallicFactor":0.12,"roughnessFactor":0.7,"baseColorTexture":{"index":34}},"doubleSided":true},{"name":"arena_metall_k5_36","pbrMetallicRoughness":{"baseColorFactor":[1,1,1,1],"metallicFactor":0.12,"roughnessFactor":0.7,"baseColorTexture":{"index":35}},"doubleSided":true},{"name":"arena_garbage_m7_37","pbrMetallicRoughness":{"baseColorFactor":[1,1,1,1],"metallicFactor":0.0,"roughnessFactor":0.82,"baseColorTexture":{"index":36}},"doubleSided":true},{"name":"arena_metall_k1_38","pbrMetallicRoughness":{"baseColorFactor":[1,1,1,1],"metallicFactor":0.12,"roughnessFactor":0.7,"baseColorTexture":{"index":37}},"doubleSided":true},{"name":"arena_ramp_textur_39","pbrMetallicRoughness":{"baseColorFactor":[1,1,1,1],"metallicFactor":0.0,"roughnessFactor":0.82,"baseColorTexture":{"index":38}},"doubleSided":true},{"name":"arena_light_1_40","pbrMetallicRoughness":{"baseColorFactor":[1,1,1,1],"metallicFactor":0.0,"roughnessFactor":0.82,"baseColorTexture":{"index":39}},"doubleSided":true,"emissiveTexture":{"index":39},"emissiveFactor":[0.8,0.65,0.42]},{"name":"arena_garbage_m1_41","pbrMetallicRoughness":{"baseColorFactor":[1,1,1,1],"metallicFactor":0.0,"roughnessFactor":0.82,"baseColorTexture":{"index":40}},"doubleSided":true},{"name":"arena_metall_k21_42","pbrMetallicRoughness":{"baseColorFactor":[1,1,1,1],"metallicFactor":0.12,"roughnessFactor":0.7,"baseColorTexture":{"index":41}},"doubleSided":true},{"name":"arena_stone_b10_43","pbrMetallicRoughness":{"baseColorFactor":[1,1,1,1],"metallicFactor":0.0,"roughnessFactor":0.92,"baseColorTexture":{"index":42}},"doubleSided":true},{"name":"arena_light_3_44","pbrMetallicRoughness":{"baseColorFactor":[1,1,1,1],"metallicFactor":0.0,"roughnessFactor":0.82,"baseColorTexture":{"index":43}},"doubleSided":true,"emissiveTexture":{"index":43},"emissiveFactor":[0.8,0.65,0.42]},{"name":"arena_metall_k2_45","pbrMetallicRoughness":{"baseColorFactor":[1,1,1,1],"metallicFactor":0.12,"roughnessFactor":0.7,"baseColorTexture":{"index":44}},"doubleSided":true},{"name":"arena_tv_uwv_46","pbrMetallicRoughness":{"baseColorFactor":[1,1,1,1],"metallicFactor":0.0,"roughnessFactor":0.82,"baseColorTexture":{"index":45}},"doubleSided":true},{"name":"arena_factory_bg_47","pbrMetallicRoughness":{"baseColorFactor":[1,1,1,1],"metallicFactor":0.0,"roughnessFactor":0.82,"baseColorTexture":{"index":46}},"doubleSided":true},{"name":"arena_metall_k19_48","pbrMetallicRoughness":{"baseColorFactor":[1,1,1,1],"metallicFactor":0.12,"roughnessFactor":0.7,"baseColorTexture":{"index":47}},"doubleSided":true},{"name":"arena_metall_p1_49","pbrMetallicRoughness":{"baseColorFactor":[1,1,1,1],"metallicFactor":0.12,"roughnessFactor":0.7,"baseColorTexture":{"index":48}},"doubleSided":true},{"name":"arena_landwall_2_50","pbrMetallicRoughness":{"baseColorFactor":[1,1,1,1],"metallicFactor":0.0,"roughnessFactor":0.82,"baseColorTexture":{"index":49}},"doubleSided":true},{"name":"arena_grass_grd2_51","pbrMetallicRoughness":{"baseColorFactor":[1,1,1,1],"metallicFactor":0.0,"roughnessFactor":0.92,"baseColorTexture":{"index":50}},"doubleSided":true},{"name":"arena_stone_b2_52","pbrMetallicRoughness":{"baseColorFactor":[1,1,1,1],"metallicFactor":0.0,"roughnessFactor":0.92,"baseColorTexture":{"index":51}},"doubleSided":true},{"name":"arena_metall_k11_53","pbrMetallicRoughness":{"baseColorFactor":[1,1,1,1],"metallicFactor":0.12,"roughnessFactor":0.7,"baseColorTexture":{"index":52}},"doubleSided":true},{"name":"arena_grass_grd_tmp3_54","pbrMetallicRoughness":{"baseColorFactor":[1,1,1,1],"metallicFactor":0.0,"roughnessFactor":0.92,"baseColorTexture":{"index":53}},"doubleSided":true},{"name":"arena_brick_w1_55","pbrMetallicRoughness":{"baseColorFactor":[1,1,1,1],"metallicFactor":0.0,"roughnessFactor":0.82,"baseColorTexture":{"index":54}},"doubleSided":true},{"name":"arena_grass_grd3c_56","pbrMetallicRoughness":{"baseColorFactor":[1,1,1,1],"metallicFactor":0.0,"roughnessFactor":0.92,"baseColorTexture":{"index":55}},"doubleSided":true},{"name":"arena_wood_p1_57","pbrMetallicRoughness":{"baseColorFactor":[1,1,1,1],"metallicFactor":0.0,"roughnessFactor":0.82,"baseColorTexture":{"index":56}},"doubleSided":true},{"name":"arena_wind_m1_58","pbrMetallicRoughness":{"baseColorFactor":[1,1,1,1],"metallicFactor":0.0,"roughnessFactor":0.82,"baseColorTexture":{"index":57}},"doubleSided":true},{"name":"arena_bims_rgba_59","pbrMetallicRoughness":{"baseColorFactor":[1,1,1,1],"metallicFactor":0.0,"roughnessFactor":0.82,"baseColorTexture":{"index":58}},"doubleSided":true,"alphaMode":"BLEND","alphaCutoff":0.08}],"images":[{"uri":"textures/metall_k20.png","name":"metall_k20"},{"uri":"textures/metall_k17.png","name":"metall_k17"},{"uri":"textures/metall_k13.png","name":"metall_k13"},{"uri":"textures/metall_k18.png","name":"metall_k18"},{"uri":"textures/metall_k14.png","name":"metall_k14"},{"uri":"textures/stone_b9.png","name":"stone_b9"},{"uri":"textures/stone_b8.png","name":"stone_b8"},{"uri":"textures/grass_grd1.png","name":"grass_grd1"},{"uri":"textures/land_grd1c.png","name":"land_grd1c"},{"uri":"textures/land_grd1e.png","name":"land_grd1e"},{"uri":"textures/land_grd1a.png","name":"land_grd1a"},{"uri":"textures/land_grd1f.png","name":"land_grd1f"},{"uri":"textures/land_grd1d.png","name":"land_grd1d"},{"uri":"textures/land_grd1b.png","name":"land_grd1b"},{"uri":"textures/stone_b12.png","name":"stone_b12"},{"uri":"textures/metall_k22.png","name":"metall_k22"},{"uri":"textures/turrel_uv.png","name":"turrel_uv"},{"uri":"textures/grass_grd_tmp4.png","name":"grass_grd_tmp4"},{"uri":"textures/garbage_m4.png","name":"garbage_m4"},{"uri":"textures/grass_grd3e.png","name":"grass_grd3e"},{"uri":"textures/stone_b5.png","name":"stone_b5"},{"uri":"textures/metall_k7.png","name":"metall_k7"},{"uri":"textures/garbage_m6.png","name":"garbage_m6"},{"uri":"textures/light_2.png","name":"light_2"},{"uri":"textures/armatur_k1.png","name":"armatur_k1"},{"uri":"textures/light_5.png","name":"light_5"},{"uri":"textures/landwall_4.png","name":"landwall_4"},{"uri":"textures/metall_k6.png","name":"metall_k6"},{"uri":"textures/grass_grd3.png","name":"grass_grd3"},{"uri":"textures/grass_grd3a.png","name":"grass_grd3a"},{"uri":"textures/metall_a1.png","name":"metall_a1"},{"uri":"textures/metall_k9.png","name":"metall_k9"},{"uri":"textures/brick_r4.png","name":"brick_r4"},{"uri":"textures/brick_r4b.png","name":"brick_r4b"},{"uri":"textures/metall_k10.png","name":"metall_k10"},{"uri":"textures/metall_k5.png","name":"metall_k5"},{"uri":"textures/garbage_m7.png","name":"garbage_m7"},{"uri":"textures/metall_k1.png","name":"metall_k1"},{"uri":"textures/ramp_textur.png","name":"ramp_textur"},{"uri":"textures/light_1.png","name":"light_1"},{"uri":"textures/garbage_m1.png","name":"garbage_m1"},{"uri":"textures/metall_k21.png","name":"metall_k21"},{"uri":"textures/stone_b10.png","name":"stone_b10"},{"uri":"textures/light_3.png","name":"light_3"},{"uri":"textures/metall_k2.png","name":"metall_k2"},{"uri":"textures/tv_uwv.png","name":"tv_uwv"},{"uri":"textures/factory_bg.png","name":"factory_bg"},{"uri":"textures/metall_k19.png","name":"metall_k19"},{"uri":"textures/metall_p1.png","name":"metall_p1"},{"uri":"textures/landwall_2.png","name":"landwall_2"},{"uri":"textures/grass_grd2.png","name":"grass_grd2"},{"uri":"textures/stone_b2.png","name":"stone_b2"},{"uri":"textures/metall_k11.png","name":"metall_k11"},{"uri":"textures/grass_grd_tmp3.png","name":"grass_grd_tmp3"},{"uri":"textures/brick_w1.png","name":"brick_w1"},{"uri":"textures/grass_grd3c.png","name":"grass_grd3c"},{"uri":"textures/wood_p1.png","name":"wood_p1"},{"uri":"textures/wind_m1.png","name":"wind_m1"},{"uri":"textures/bims_rgba.png","name":"bims_rgba"}],"textures":[{"source":0,"sampler":0},{"source":1,"sampler":0},{"source":2,"sampler":0},{"source":3,"sampler":0},{"source":4,"sampler":0},{"source":5,"sampler":0},{"source":6,"sampler":0},{"source":7,"sampler":0},{"source":8,"sampler":0},{"source":9,"sampler":0},{"source":10,"sampler":0},{"source":11,"sampler":0},{"source":12,"sampler":0},{"source":13,"sampler":0},{"source":14,"sampler":0},{"source":15,"sampler":0},{"source":16,"sampler":0},{"source":17,"sampler":0},{"source":18,"sampler":0},{"source":19,"sampler":0},{"source":20,"sampler":0},{"source":21,"sampler":0},{"source":22,"sampler":0},{"source":23,"sampler":0},{"source":24,"sampler":0},{"source":25,"sampler":0},{"source":26,"sampler":0},{"source":27,"sampler":0},{"source":28,"sampler":0},{"source":29,"sampler":0},{"source":30,"sampler":0},{"source":31,"sampler":0},{"source":32,"sampler":0},{"source":33,"sampler":0},{"source":34,"sampler":0},{"source":35,"sampler":0},{"source":36,"sampler":0},{"source":37,"sampler":0},{"source":38,"sampler":0},{"source":39,"sampler":0},{"source":40,"sampler":0},{"source":41,"sampler":0},{"source":42,"sampler":0},{"source":43,"sampler":0},{"source":44,"sampler":0},{"source":45,"sampler":0},{"source":46,"sampler":0},{"source":47,"sampler":0},{"source":48,"sampler":0},{"source":49,"sampler":0},{"source":50,"sampler":0},{"source":51,"sampler":0},{"source":52,"sampler":0},{"source":53,"sampler":0},{"source":54,"sampler":0},{"source":55,"sampler":0},{"source":56,"sampler":0},{"source":57,"sampler":0},{"source":58,"sampler":0}],"samplers":[{"magFilter":9729,"minFilter":9987,"wrapS":10497,"wrapT":10497}]}