mtllib smoky_m0.mtl
o turret
v 0.66000004 0.71367474 -0.66000061
v -0.65999985 0.71367474 0.82500000
v 0.66000004 0.71367474 0.82500000
v -0.65999985 0.71367474 -0.66000061
v 0.33000015 0.48530903 -1.15499939
v 0.11418304 0.48530903 -1.15499939
v -0.11418274 0.48530903 -1.15499939
v -0.32999969 0.48530903 -1.15499939
v 0.66000004 -0.00000050 0.82500000
v 0.66000004 -0.00000038 -0.66000000
v 0.33000015 -0.00000038 -1.15499939
v 0.00000015 0.25694313 -1.15499939
v -0.32999969 -0.00000038 -1.15499939
v -0.65999969 -0.00000038 -0.66000000
v -0.65999969 -0.00000050 0.82500000
v -0.32999969 -0.00000038 1.15500244
v -0.32999969 0.48530903 1.15500244
v 0.33000015 0.48530903 1.15500244
v 0.33000015 -0.00000038 1.15500244
v 0.11418304 0.48530903 -2.80500053
v -0.11418274 0.48530903 -2.80500053
v 0.00000015 0.25694317 -2.80500053
v 0.33000015 0.48530903 -1.15499939
v 0.33000015 0.48530903 -1.15499939
v 0.33000015 -0.00000038 -1.15499939
v 0.33000015 -0.00000038 -1.15499939
v -0.11418274 0.48530903 -1.15499939
v -0.32999969 0.48530903 -1.15499939
v -0.32999969 -0.00000038 -1.15499939
v -0.32999969 0.48530903 -1.15499939
v -0.32999969 0.48530903 1.15500244
v 0.33000015 0.48530903 1.15500244
v 0.33000015 0.48530903 1.15500244
v -0.32999969 -0.00000038 1.15500244
v 0.33000015 -0.00000038 1.15500244
v -0.32999969 0.48530903 1.15500244
v -0.32999969 -0.00000038 1.15500244
v -0.11418274 0.48530903 -1.15499939
v -0.11418274 0.48530903 -1.15499939
v 0.11418304 0.48530903 -1.15499939
v 0.00000015 0.25694313 -1.15499939
v 0.11418304 0.48530903 -1.15499939
v 0.00000015 0.25694313 -1.15499939
v 0.00000015 0.25694317 -2.80500053
v 0.00000015 0.25694313 -1.15499939
v -0.11418274 0.48530903 -1.15499939
v -0.11418274 0.48530903 -1.15499939
v 0.00000015 0.25694317 -2.80500053
v 0.00000015 0.25694317 -2.80500053
v 0.33000015 -0.00000038 1.15500244
v -0.32999969 -0.00000038 1.15500244
v -0.65999969 -0.00000050 0.82500000
v -0.65999969 -0.00000050 0.82500000
v -0.65999969 -0.00000038 -0.66000000
v -0.32999969 -0.00000038 -1.15499939
v -0.32999969 -0.00000038 -1.15499939
v 0.33000015 -0.00000038 -1.15499939
v 0.66000004 -0.00000038 -0.66000000
v -0.65999969 -0.00000050 0.82500000
v -0.32999969 -0.00000038 -1.15499939
v 0.66000004 -0.00000038 -0.66000000
v 0.33000015 -0.00000038 1.15500244
v -0.65999969 -0.00000050 0.82500000
v 0.66000004 -0.00000038 -0.66000000
v 0.66000004 -0.00000050 0.82500000
v 0.33000015 -0.00000038 1.15500244
v 0.66000004 -0.00000038 -0.66000000
vt 0.25419188 0.81957215
vt 0.59625798 0.51551360
vt 0.59625798 0.81957215
vt 0.25419188 0.51551360
vt 0.12862082 0.74355751
vt 0.12862082 0.69384462
vt 0.12862082 0.64124119
vt 0.12862082 0.59152830
vt 0.59625804 0.98396546
vt 0.25419194 0.98396546
vt 0.11715473 0.98396546
vt 0.07601731 0.66754287
vt 0.01683102 0.59152830
vt 0.25419188 0.35112035
vt 0.59625810 0.35112035
vt 0.70375919 0.35112035
vt 0.70375919 0.46291021
vt 0.68869936 0.74355745
vt 0.70375913 0.98396546
vt 0.39320698 0.17027730
vt 0.39320698 0.22288072
vt 0.39320692 0.11146482
vt 0.11715473 0.87217563
vt 0.11715473 0.87217563
vt 0.01683101 0.74355751
vt 0.01683101 0.74355751
vt 0.12862082 0.64124113
vt 0.11715467 0.46291015
vt 0.11715465 0.35112035
vt 0.11715467 0.46291015
vt 0.68869936 0.59152818
vt 0.70375913 0.87217563
vt 0.70375913 0.87217563
vt 0.80048913 0.59152818
vt 0.80048913 0.74355745
vt 0.68869936 0.59152818
vt 0.80048913 0.59152818
vt 0.01313343 0.22288068
vt 0.01313343 0.22288068
vt 0.01313343 0.17027724
vt 0.01313343 0.11146477
vt 0.01313343 0.17027724
vt 0.01313343 0.11146477
vt 0.39320692 0.28169325
vt 0.01313343 0.28169319
vt 0.01313343 0.22288068
vt 0.01313343 0.22288068
vt 0.39320692 0.28169325
vt 0.44581047 0.19657901
vt 0.98689902 0.09443854
vt 0.98689902 0.24646780
vt 0.91088384 0.32248250
vt 0.91088384 0.32248250
vt 0.56881779 0.32248250
vt 0.45479614 0.24646780
vt 0.45479614 0.24646780
vt 0.45479614 0.09443860
vt 0.56881779 0.01842393
vt 0.91088384 0.32248250
vt 0.45479614 0.24646780
vt 0.56881779 0.01842393
vt 0.98689902 0.09443854
vt 0.91088384 0.32248250
vt 0.56881779 0.01842393
vt 0.91088384 0.01842399
vt 0.98689902 0.09443854
vt 0.56881779 0.01842393
usemtl M0Material
s 1
f 1/1 4/4 2/2
f 2/2 3/3 1/1
f 1/1 5/5 6/6
f 1/1 6/6 7/7
f 1/1 7/7 8/8
f 1/1 8/8 4/4
f 9/9 10/10 1/1
f 1/1 3/3 9/9
f 10/10 11/11 23/23
f 24/24 1/1 10/10
f 12/12 6/6 5/5
f 5/5 25/25 12/12
f 13/13 12/12 26/26
f 12/12 13/13 8/8
f 8/8 27/27 12/12
f 28/28 29/29 14/14
f 14/14 4/4 30/30
f 14/14 15/15 2/2
f 2/2 4/4 14/14
f 15/15 16/16 17/17
f 17/17 2/2 15/15
f 18/18 3/3 2/2
f 2/2 31/31 18/18
f 32/32 19/19 9/9
f 9/9 3/3 33/33
f 34/34 35/35 18/18
f 18/18 36/36 37/37
f 20/20 21/21 38/38
f 39/39 40/40 20/20
f 41/41 22/22 20/20
f 20/20 42/42 43/43
f 44/44 45/45 46/46
f 47/47 21/21 48/48
f 49/49 21/21 20/20
f 50/50 51/51 52/52
f 53/53 54/54 55/55
f 56/56 57/57 58/58
f 59/59 60/60 61/61
f 62/62 63/63 64/64
f 65/65 66/66 67/67
