mtllib wasp_m0.mtl
o hull
v 0.82500000 1.48500000 0.99000000
v 0.82500000 1.48500000 -0.49500000
v -0.82500000 1.48500000 -0.49500000
v -0.82500000 1.48500000 0.99000000
v -0.82500000 1.48500000 1.98000000
v 0.82500000 1.48500000 1.98000000
v 0.82500000 1.15500000 -0.49500000
v -0.82500000 1.15500000 -0.49500000
v 0.82500000 0.66000000 -1.48500000
v 0.82500000 1.15500000 1.98000000
v 0.82500000 1.15500000 0.99000000
v 1.32000000 1.15500000 0.99000000
v 0.82500000 1.15500000 -1.98000000
v 1.32000000 1.15500000 -1.98000000
v 1.32000000 1.15500000 2.31000000
v 0.82500000 1.15500000 2.31000000
v -0.82500000 1.15500000 1.98000000
v -0.82500000 0.66000008 1.98000000
v 0.82500000 0.66000000 1.98000000
v 0.82500000 0.66000000 2.31000000
v 1.32000000 0.66000000 2.31000000
v 1.32000000 0.82500000 -2.31000000
v 0.82500000 0.82500000 -2.31000000
v 1.32000000 0.49500000 -2.31000000
v 0.82500000 0.49500000 -2.31000000
v 1.32000000 0.00000041 -1.48500000
v 0.82500000 0.00000041 -1.48500000
v 1.32000000 0.00000039 1.98000000
v 0.82500000 0.00000039 1.98000000
v -1.32000000 1.15500000 -0.49500000
v -0.82500000 0.65999992 -1.48500000
v -0.82500000 1.15500000 0.99000000
v -1.32000000 1.15500015 0.99000000
v -0.82500000 1.15499985 -1.98000000
v -1.32000000 1.15499985 -1.98000000
v -1.32000000 1.15500023 2.31000000
v -0.82500000 1.15500023 2.31000000
v -0.82500000 0.66000023 2.31000000
v -1.32000000 0.66000023 2.31000000
v -1.32000000 0.82499969 -2.31000000
v -0.82500000 0.82499969 -2.31000000
v -1.32000000 0.49499977 -2.31000000
v -0.82500000 0.49499977 -2.31000000
v -1.32000000 0.00000031 -1.48500000
v -0.82500000 0.00000031 -1.48500000
v -1.32000000 0.00000055 1.98000000
v -0.82500000 0.00000055 1.98000000
v 1.32000000 1.15500000 -0.49500000
v 0.82500000 1.15500000 0.99000000
v 0.82500000 1.48500000 0.99000000
v 1.32000000 1.15500000 0.99000000
v 1.32000000 1.15500000 -0.49500000
v 1.32000000 1.15500000 0.99000000
v 0.82500000 1.15500000 -0.49500000
v 1.32000000 1.15500000 -0.49500000
v 1.32000000 1.15500000 -0.49500000
v 0.82500000 1.15500000 1.98000000
v 0.82500000 1.15500000 1.98000000
v 0.82500000 1.15500000 1.98000000
v 0.82500000 1.15500000 0.99000000
v 0.82500000 1.15500000 1.98000000
v 0.82500000 1.15500000 1.98000000
v 0.82500000 0.66000000 1.98000000
v 0.82500000 1.15500000 1.98000000
v 0.82500000 0.66000000 1.98000000
v 0.82500000 0.49500000 -2.31000000
v 0.82500000 0.49500000 -2.31000000
v 1.32000000 0.49500000 -2.31000000
v 1.32000000 0.66000000 2.31000000
v 0.82500000 0.66000000 2.31000000
v 0.82500000 0.66000000 2.31000000
v 1.32000000 0.66000000 2.31000000
v 1.32000000 0.00000039 1.98000000
v 1.32000000 0.00000041 -1.48500000
v 1.32000000 0.49500000 -2.31000000
v 1.32000000 0.82500000 -2.31000000
v 1.32000000 0.00000041 -1.48500000
v 1.32000000 0.82500000 -2.31000000
v 1.32000000 0.00000041 -1.48500000
v 1.32000000 1.15500000 -0.49500000
v 1.32000000 0.00000041 -1.48500000
v 1.32000000 1.15500000 -0.49500000
v 1.32000000 0.00000039 1.98000000
v 1.32000000 0.00000041 -1.48500000
v 1.32000000 0.00000039 1.98000000
v 0.82500000 0.82500000 -2.31000000
v 0.82500000 0.49500000 -2.31000000
v 0.82500000 0.66000000 -1.48500000
v 0.82500000 0.82500000 -2.31000000
v 0.82500000 0.66000000 -1.48500000
v 0.82500000 1.15500000 -0.49500000
v 0.82500000 1.15500000 -1.98000000
v 0.82500000 0.82500000 -2.31000000
v 0.82500000 1.15500000 -0.49500000
v 0.82500000 0.66000000 2.31000000
v 0.82500000 0.66000000 2.31000000
v 0.82500000 0.66000000 1.98000000
v 0.82500000 0.66000000 1.98000000
v 0.82500000 0.66000000 -1.48500000
v 0.82500000 0.66000000 -1.48500000
v 0.82500000 0.49500000 -2.31000000
v -0.82500000 1.15500000 1.98000000
v -0.82500000 1.15500000 1.98000000
v -0.82500000 1.15500000 0.99000000
v -0.82500000 1.48500000 0.99000000
v -1.32000000 1.15500015 0.99000000
v -1.32000000 1.15500000 -0.49500000
v -1.32000000 1.15500015 0.99000000
v -1.32000000 1.15500000 -0.49500000
v -1.32000000 1.15500000 -0.49500000
v -0.82500000 1.15500000 -0.49500000
v -0.82500000 1.15500000 1.98000000
v -0.82500000 1.15500000 0.99000000
v -0.82500000 1.15500000 1.98000000
v -0.82500000 1.15500000 1.98000000
v -0.82500000 0.66000008 1.98000000
v -0.82500000 1.15500000 1.98000000
v -0.82500000 0.66000008 1.98000000
v -1.32000000 0.49499977 -2.31000000
v -0.82500000 0.49499977 -2.31000000
v -0.82500000 0.49499977 -2.31000000
v -0.82500000 0.66000023 2.31000000
v -0.82500000 0.66000023 2.31000000
v -1.32000000 0.66000023 2.31000000
v -1.32000000 0.82499969 -2.31000000
v -1.32000000 0.49499977 -2.31000000
v -1.32000000 0.49499977 -2.31000000
v -1.32000000 0.00000031 -1.48500000
v -1.32000000 1.15500000 -0.49500000
v -1.32000000 0.00000031 -1.48500000
v -1.32000000 1.15500000 -0.49500000
v -1.32000000 0.00000031 -1.48500000
v -1.32000000 0.00000055 1.98000000
v -1.32000000 0.00000055 1.98000000
v -1.32000000 0.66000023 2.31000000
v -1.32000000 0.00000055 1.98000000
v -1.32000000 1.15500000 -0.49500000
v -1.32000000 0.00000055 1.98000000
v -0.82500000 0.65999992 -1.48500000
v -0.82500000 0.49499977 -2.31000000
v -0.82500000 0.82499969 -2.31000000
v -0.82500000 1.15500000 -0.49500000
v -0.82500000 0.65999992 -1.48500000
v -0.82500000 0.82499969 -2.31000000
v -0.82500000 1.15499985 -1.98000000
v -0.82500000 1.15500000 -0.49500000
v -0.82500000 0.82499969 -2.31000000
v -0.82500000 0.49499977 -2.31000000
v -0.82500000 0.65999992 -1.48500000
v -0.82500000 0.65999992 -1.48500000
v -0.82500000 0.66000008 1.98000000
v -0.82500000 0.66000008 1.98000000
v -0.82500000 0.66000023 2.31000000
v -0.82500000 0.66000023 2.31000000
v 0.82500000 0.66000000 1.98000000
v -0.82500000 0.66000008 1.98000000
v -0.82500000 0.65999992 -1.48500000
v -0.82500000 0.65999992 -1.48500000
v 0.82500000 0.66000000 -1.48500000
v 0.82500000 0.66000000 1.98000000
vt 0.90523618 0.23160195
vt 0.90523624 0.40425986
vt 0.71339417 0.40425986
vt 0.71339411 0.23160201
vt 0.71339411 0.11649674
vt 0.90523618 0.11649674
vt 0.90523612 0.44262826
vt 0.71339417 0.44262826
vt 0.90523612 0.57131976
vt 0.94360453 0.11649674
vt 0.94360453 0.23160201
vt 0.22599250 0.64663911
vt 0.57130814 0.70419168
vt 0.57130814 0.64663923
vt 0.07251877 0.64663911
vt 0.07251871 0.70419168
vt 0.71339411 0.07812834
vt 0.71339411 0.02057576
vt 0.90523618 0.02057576
vt 0.01496613 0.70419168
vt 0.01496613 0.64663911
vt 0.62556922 0.64663923
vt 0.62556922 0.70419168
vt 0.66393769 0.64663911
vt 0.66393769 0.70419180
vt 0.50829750 0.48217708
vt 0.50829750 0.42462450
vt 0.10542928 0.48217708
vt 0.10542916 0.42462450
vt 0.65584147 0.44262826
vt 0.71339417 0.57131988
vt 0.67502564 0.23160201
vt 0.22608900 0.85008901
vt 0.57140464 0.79253638
vt 0.57140452 0.85008895
vt 0.07261526 0.85008901
vt 0.07261526 0.79253632
vt 0.01506268 0.79253632
vt 0.01506268 0.85008901
vt 0.62566566 0.85008895
vt 0.62566572 0.79253638
vt 0.66403389 0.85008901
vt 0.66403413 0.79253644
vt 0.50829738 0.02175598
vt 0.50829750 0.07930879
vt 0.10542910 0.02175622
vt 0.10542922 0.07930879
vt 0.96278876 0.44262826
vt 0.22599244 0.70419168
vt 0.26436085 0.70419168
vt 0.97440583 0.23160201
vt 0.97440588 0.40425986
vt 0.97440583 0.23160201
vt 0.39865029 0.70419168
vt 0.39865029 0.64663911
vt 0.39865029 0.64663911
vt 0.11088717 0.70419168
vt 0.11088717 0.70419168
vt 0.11088717 0.70419168
vt 0.22599244 0.70419168
vt 0.90523618 0.07812834
vt 0.90523618 0.07812834
vt 0.01496613 0.74256015
vt 0.07251871 0.74256015
vt 0.01496613 0.74256015
vt 0.62015957 0.42462450
vt 0.62015957 0.42462450
vt 0.62015957 0.48217708
vt 0.01963483 0.48217708
vt 0.01963483 0.42462450
vt 0.01963483 0.42462450
vt 0.07251877 0.58908629
vt 0.11088723 0.51234961
vt 0.51375556 0.51234961
vt 0.60967660 0.56990218
vt 0.60967660 0.60827065
vt 0.51375556 0.51234961
vt 0.60967660 0.60827065
vt 0.51375556 0.51234961
vt 0.39865029 0.64663911
vt 0.51375556 0.51234961
vt 0.39865029 0.64663911
vt 0.11088723 0.51234961
vt 0.51375556 0.51234961
vt 0.11088723 0.51234961
vt 0.92788696 0.64007020
vt 0.92788696 0.67843866
vt 0.83196592 0.65925431
vt 0.92788696 0.64007020
vt 0.83196592 0.65925431
vt 0.71686077 0.60170197
vt 0.88951850 0.60170197
vt 0.92788696 0.64007020
vt 0.71686077 0.60170197
vt 0.06706081 0.34788781
vt 0.06706081 0.34788781
vt 0.10542916 0.34788781
vt 0.10542916 0.34788781
vt 0.50829750 0.34788758
vt 0.50829750 0.34788758
vt 0.60421854 0.36707193
vt 0.67502564 0.11649674
vt 0.67502564 0.11649674
vt 0.22608888 0.79253632
vt 0.26445735 0.79253644
vt 0.64422458 0.23160207
vt 0.64422452 0.40425986
vt 0.64422458 0.23160207
vt 0.39874673 0.85008895
vt 0.39874673 0.85008895
vt 0.39874685 0.79253626
vt 0.11098372 0.79253632
vt 0.22608888 0.79253632
vt 0.11098372 0.79253632
vt 0.11098372 0.79253632
vt 0.01506245 0.75416797
vt 0.07261526 0.75416797
vt 0.01506245 0.75416797
vt 0.62015957 0.02175622
vt 0.62015957 0.07930879
vt 0.62015957 0.07930879
vt 0.01963477 0.07930903
vt 0.01963477 0.07930903
vt 0.01963477 0.02175622
vt 0.60977298 0.88845742
vt 0.60977304 0.92682564
vt 0.60977304 0.92682564
vt 0.51385194 0.98437834
vt 0.39874673 0.85008895
vt 0.51385194 0.98437834
vt 0.39874673 0.85008895
vt 0.51385194 0.98437834
vt 0.11098372 0.98437846
vt 0.11098372 0.98437846
vt 0.07261526 0.90764159
vt 0.11098372 0.98437846
vt 0.39874673 0.85008895
vt 0.11098372 0.98437846
vt 0.83196592 0.71442491
vt 0.92788696 0.69524068
vt 0.92788696 0.73360914
vt 0.71686077 0.77197748
vt 0.83196592 0.71442491
vt 0.92788696 0.73360914
vt 0.88951850 0.77197748
vt 0.71686077 0.77197748
vt 0.92788696 0.73360914
vt 0.60421854 0.13686137
vt 0.50829750 0.15604548
vt 0.50829750 0.15604548
vt 0.10542910 0.15604572
vt 0.10542910 0.15604572
vt 0.06706075 0.15604572
vt 0.06706075 0.15604572
vt 0.10542916 0.34788781
vt 0.10542910 0.15604572
vt 0.50829750 0.15604548
vt 0.50829750 0.15604548
vt 0.50829750 0.34788758
vt 0.10542916 0.34788781
usemtl M0Material
s 1
f 2/2 3/3 4/4
f 1/1 2/2 4/4
f 1/1 4/4 5/5
f 1/1 5/5 6/6
f 2/2 48/48 7/7
f 2/2 7/7 8/8
f 2/2 8/8 30/30
f 2/2 30/30 3/3
f 9/9 31/31 8/8
f 8/8 7/7 9/9
f 10/10 11/11 1/1
f 1/1 6/6 10/10
f 49/49 12/12 50/50
f 51/51 52/52 2/2
f 2/2 1/1 53/53
f 13/13 54/54 55/55
f 56/56 14/14 13/13
f 57/57 16/16 15/15
f 58/58 15/15 12/12
f 59/59 12/12 60/60
f 17/17 18/18 19/19
f 5/5 17/17 19/19
f 5/5 19/19 61/61
f 5/5 62/62 6/6
f 63/63 20/20 16/16
f 16/16 64/64 65/65
f 20/20 21/21 15/15
f 15/15 16/16 20/20
f 22/22 23/23 13/13
f 13/13 14/14 22/22
f 24/24 25/25 23/23
f 23/23 22/22 24/24
f 26/26 27/27 66/66
f 67/67 68/68 26/26
f 28/28 69/69 70/70
f 71/71 29/29 28/28
f 15/15 72/72 73/73
f 74/74 75/75 76/76
f 77/77 78/78 14/14
f 79/79 14/14 80/80
f 81/81 82/82 12/12
f 83/83 84/84 12/12
f 15/15 85/85 12/12
f 86/86 87/87 88/88
f 89/89 90/90 91/91
f 92/92 93/93 94/94
f 27/27 29/29 95/95
f 27/27 96/96 97/97
f 27/27 98/98 99/99
f 27/27 100/100 101/101
f 102/102 5/5 4/4
f 4/4 32/32 103/103
f 104/104 105/105 33/33
f 106/106 4/4 3/3
f 3/3 107/107 108/108
f 34/34 35/35 109/109
f 110/110 111/111 34/34
f 112/112 113/113 33/33
f 114/114 33/33 36/36
f 115/115 36/36 37/37
f 116/116 117/117 37/37
f 37/37 38/38 118/118
f 38/38 37/37 36/36
f 36/36 39/39 38/38
f 40/40 35/35 34/34
f 34/34 41/41 40/40
f 42/42 40/40 41/41
f 41/41 43/43 42/42
f 44/44 119/119 120/120
f 121/121 45/45 44/44
f 46/46 47/47 122/122
f 123/123 124/124 46/46
f 35/35 125/125 126/126
f 35/35 127/127 128/128
f 129/129 35/35 130/130
f 131/131 132/132 133/133
f 134/134 135/135 36/36
f 136/136 36/36 33/33
f 137/137 138/138 33/33
f 139/139 140/140 141/141
f 142/142 143/143 144/144
f 145/145 146/146 147/147
f 45/45 148/148 149/149
f 45/45 150/150 151/151
f 45/45 152/152 153/153
f 45/45 154/154 47/47
f 47/47 46/46 44/44
f 44/44 45/45 47/47
f 155/155 156/156 157/157
f 158/158 159/159 160/160
f 28/28 29/29 27/27
f 27/27 26/26 28/28
